<?xml version="1.0" standalone="no"?>
<!DOCTYPE svg PUBLIC "-//W3C//DTD SVG 20010904//EN"
 "http://www.w3.org/TR/2001/REC-SVG-20010904/DTD/svg10.dtd">
<svg version="1.0" xmlns="http://www.w3.org/2000/svg"
 width="1380.000000pt" height="628.000000pt" viewBox="0 0 1380.000000 628.000000"
 preserveAspectRatio="xMidYMid meet">

<g transform="translate(0.000000,628.000000) scale(0.100000,-0.100000)"
fill="#000000" stroke="none">
<path d="M2159 5255 c-158 -39 -297 -143 -383 -290 -44 -74 -1389 -3109 -1414
-3190 -19 -62 -25 -104 -25 -185 -1 -127 12 -186 68 -306 77 -166 224 -292
389 -334 143 -36 256 -24 394 42 94 44 208 147 255 229 15 25 185 401 378 835
386 867 385 863 337 934 -13 19 -41 43 -62 54 -32 16 -44 17 -74 7 -21 -6 -47
-19 -59 -29 -19 -14 -230 -476 -498 -1087 -134 -307 -228 -514 -250 -551 -78
-133 -262 -195 -398 -136 -66 30 -142 104 -174 171 -32 67 -44 203 -23 267 10
30 691 1570 833 1884 23 51 121 272 407 920 62 140 124 277 137 303 81 163
275 227 439 146 137 -69 213 -254 171 -414 -7 -28 -113 -275 -235 -551 -122
-275 -222 -513 -222 -529 0 -23 54 -155 190 -460 10 -22 181 -406 380 -854
199 -448 373 -838 387 -865 59 -118 169 -224 287 -280 288 -136 624 -12 770
286 97 196 101 399 12 606 -32 74 -856 1930 -898 2022 -12 25 -43 95 -70 155
-27 61 -58 120 -70 132 -83 89 -228 21 -228 -108 0 -29 34 -109 260 -619 266
-599 734 -1652 751 -1688 56 -123 61 -238 14 -340 -39 -85 -87 -137 -161 -173
-55 -27 -76 -32 -138 -32 -123 0 -233 68 -290 180 -26 52 -906 2030 -906 2038
0 2 90 206 199 453 110 247 209 478 221 513 30 88 37 249 16 349 -41 194 -173
370 -337 448 -46 22 -108 45 -137 51 -70 14 -173 13 -243 -4z"/>
<path d="M5875 3535 c-51 -18 -110 -81 -124 -131 -15 -53 -14 -481 0 -525 32
-94 105 -143 215 -144 61 0 77 4 119 30 35 21 56 45 74 80 26 49 26 51 26 301
l0 251 -30 48 c-56 90 -173 128 -280 90z m156 -134 c24 -19 24 -22 27 -242 2
-148 -1 -231 -8 -249 -22 -54 -113 -68 -155 -25 l-25 24 0 231 0 231 25 24
c31 32 101 35 136 6z"/>
<path d="M6626 3536 c-49 -19 -94 -60 -117 -111 -16 -35 -19 -68 -19 -285 0
-217 3 -250 19 -286 72 -158 322 -163 402 -7 24 47 24 53 24 293 0 244 0 246
-26 295 -35 68 -96 106 -181 111 -40 3 -77 -1 -102 -10z m138 -127 c39 -18 46
-57 46 -269 0 -112 -5 -210 -10 -227 -19 -53 -104 -71 -154 -32 l-26 20 0 239
0 239 26 20 c29 23 80 27 118 10z"/>
<path d="M9266 3535 c-90 -32 -138 -102 -138 -203 0 -105 40 -155 204 -256 91
-56 108 -76 108 -132 0 -67 -57 -99 -138 -78 -30 8 -52 53 -52 104 l0 40 -66
0 -67 0 7 -62 c4 -34 13 -76 21 -93 73 -168 338 -164 409 7 21 50 20 134 -3
183 -22 49 -94 115 -177 161 -106 59 -138 105 -114 165 16 37 37 49 88 49 61
0 90 -29 94 -93 l3 -52 63 -3 62 -3 0 58 c0 73 -26 130 -76 171 -63 52 -148
66 -228 37z"/>
<path d="M4415 3528 c-5 -13 -135 -764 -135 -780 0 -14 120 -10 124 5 3 6 7
24 10 40 6 27 7 27 91 27 83 0 85 -1 85 -24 0 -49 8 -56 71 -56 70 0 68 -9 39
160 -45 268 -100 587 -106 613 -6 27 -6 27 -90 27 -59 0 -86 -4 -89 -12z m119
-412 c14 -82 26 -153 26 -158 0 -4 -27 -8 -60 -8 -57 0 -60 1 -56 23 3 12 14
74 26 137 25 142 30 163 35 158 2 -2 15 -70 29 -152z"/>
<path d="M5026 3524 c-3 -9 -6 -181 -6 -384 0 -203 3 -375 6 -384 5 -12 21
-16 65 -16 l59 0 0 150 0 150 53 0 c70 0 148 24 188 57 69 58 98 183 67 286
-18 61 -82 122 -147 141 -77 23 -276 23 -285 0z m290 -147 c19 -23 24 -39 24
-87 0 -48 -5 -64 -24 -87 -21 -24 -32 -28 -95 -31 l-71 -4 0 122 0 122 71 -4
c63 -3 74 -7 95 -31z"/>
<path d="M7250 3140 l0 -401 63 3 62 3 3 173 2 172 60 0 c70 0 104 -13 119
-47 6 -14 11 -83 11 -164 l0 -140 63 3 62 3 3 118 c3 137 -9 220 -39 260 l-20
28 20 32 c70 114 36 265 -74 329 -36 21 -55 23 -187 26 l-148 4 0 -402z m273
259 c45 -20 60 -85 32 -138 -18 -36 -32 -41 -111 -41 l-64 0 0 95 0 95 60 0
c32 0 70 -5 83 -11z"/>
<path d="M7958 3535 c-3 -3 25 -182 62 -398 l66 -392 89 0 89 0 62 365 c35
201 66 380 69 398 l6 32 -66 0 c-36 0 -65 -3 -65 -7 0 -11 -79 -473 -85 -502
-3 -13 -8 -21 -11 -19 -3 4 -94 508 -94 526 0 4 -117 2 -122 -3z"/>
<path d="M9880 3140 l0 -400 65 0 65 0 0 175 0 175 95 0 95 0 0 -175 0 -176
63 3 62 3 3 398 2 398 -62 -3 -63 -3 -3 -157 -3 -158 -94 0 -95 0 0 160 0 160
-65 0 -65 0 0 -400z"/>
<path d="M10746 3528 c-3 -7 -25 -137 -51 -288 -25 -151 -55 -322 -65 -380
-10 -57 -16 -108 -14 -112 3 -5 32 -8 64 -8 l58 0 7 40 7 40 83 0 83 0 7 -40
7 -40 58 0 c32 0 61 3 63 8 3 4 -25 183 -62 397 l-67 390 -87 3 c-65 2 -88 -1
-91 -10z m124 -424 c11 -71 20 -136 20 -142 0 -8 -19 -12 -55 -12 -40 0 -55 4
-55 14 0 15 36 230 46 281 6 27 8 28 15 10 5 -11 17 -79 29 -151z"/>
<path d="M11370 3141 l0 -401 59 0 c44 0 60 4 65 16 3 9 6 88 6 176 l0 160 70
-4 c110 -6 114 -13 118 -198 l3 -150 60 0 c55 0 59 2 65 26 4 14 5 85 2 158
-4 120 -7 137 -31 180 l-26 46 25 49 c19 37 25 63 25 112 0 78 -12 113 -54
157 -57 60 -78 66 -239 70 l-148 4 0 -401z m283 249 c31 -25 43 -74 27 -114
-17 -45 -38 -55 -112 -56 l-68 0 0 95 0 95 64 0 c49 0 69 -5 89 -20z"/>
<path d="M12128 3273 c-2 -148 -2 -328 0 -400 l3 -133 60 0 59 0 1 128 c1 70
0 162 -1 205 -1 47 2 77 9 77 5 0 31 -66 56 -147 88 -283 77 -258 117 -261
l35 -3 58 203 c32 112 63 219 69 238 9 29 12 -9 16 -200 l5 -235 63 -3 62 -3
0 401 0 401 -87 -3 -87 -3 -66 -227 c-36 -125 -68 -229 -71 -233 -3 -3 -39
101 -80 230 l-73 235 -73 0 -72 0 -3 -267z"/>
<path d="M13156 3513 c-17 -83 -126 -734 -126 -752 0 -19 6 -21 59 -21 63 0
71 7 71 56 0 23 2 24 85 24 84 0 85 0 91 -27 3 -16 7 -34 10 -40 2 -9 24 -13
64 -13 50 0 60 3 60 18 0 9 -15 103 -34 207 -19 105 -49 277 -67 383 l-33 192
-87 0 c-87 0 -87 0 -93 -27z m124 -393 c12 -74 24 -143 26 -152 5 -16 -2 -18
-56 -18 l-62 0 5 33 c4 17 16 90 28 160 12 70 25 124 30 120 4 -4 17 -69 29
-143z"/>
</g>
</svg>
